<svg width="16" height="18" viewBox="0 0 16 18" fill="none" xmlns="http://www.w3.org/2000/svg">
<path d="M7.47205 8.59726L0.0662231 16.5081C0.149381 16.8086 0.298827 17.0857 0.503137 17.3183C0.707447 17.5509 0.961213 17.7328 1.24503 17.8501C1.52885 17.9673 1.83522 18.0169 2.1407 17.9949C2.44618 17.973 2.7427 17.8801 3.00758 17.7234L11.3405 12.8846L7.47205 8.59726Z" fill="#EA4335"/>
<path d="M14.9606 7.25253L11.3571 5.14822L7.30096 8.7773L11.3736 12.8734L14.9496 10.7916C15.2664 10.6225 15.5318 10.3682 15.7169 10.0562C15.9021 9.74431 16 9.38666 16 9.02206C16 8.65745 15.9021 8.29981 15.7169 7.98788C15.5318 7.67595 15.2664 7.42165 14.9496 7.25253H14.9606Z" fill="#FBBC04"/>
<path d="M0.0661827 1.49664C0.0214161 1.66537 -0.000858153 1.83949 -3.92527e-05 2.01428V15.9905C0.000408508 16.1652 0.0226613 16.3391 0.0661827 16.5081L7.72586 8.79981L0.0661827 1.49664Z" fill="#4285F4"/>
<path d="M7.52723 9.00237L11.3571 5.14823L3.03518 0.286954C2.7221 0.100009 2.36603 0.000998051 2.00322 4.02413e-06C1.56504 -0.000881307 1.13859 0.144339 0.788886 0.413528C0.439181 0.682716 0.185398 1.06111 0.0662231 1.49102L7.52723 9.00237Z" fill="#34A853"/>
</svg>
