<?xml version="1.0" encoding="utf-8"?>
<!-- Generator: Adobe Illustrator 25.2.1, SVG Export Plug-In . SVG Version: 6.00 Build 0)  -->
<svg version="1.1" id="图层_1" xmlns="http://www.w3.org/2000/svg" xmlns:xlink="http://www.w3.org/1999/xlink" x="0px" y="0px"
	 viewBox="0 0 18 22" style="enable-background:new 0 0 18 22;" xml:space="preserve">
<style type="text/css">
	.st0{fill:#FFFFFF;}
</style>
<path class="st0" d="M14.9,11.7c0-0.8,0.2-1.7,0.6-2.4c0.4-0.7,1-1.3,1.7-1.8c-0.5-0.6-1-1.2-1.7-1.6S14,5.3,13.2,5.3
	c-1.7-0.2-3.3,1-4.2,1s-2.2-1-3.6-1c-0.9,0-1.8,0.3-2.6,0.8s-1.4,1.2-1.9,2c-1.9,3.3-0.5,8.3,1.4,11c0.9,1.3,2,2.8,3.4,2.8
	C7.2,21.8,7.8,21,9.4,21c1.7,0,2.1,0.9,3.6,0.9s2.4-1.3,3.3-2.7c0.7-0.9,1.2-2,1.5-3.1c-0.9-0.4-1.6-1-2.1-1.8S14.9,12.6,14.9,11.7z
	"/>
<path class="st0" d="M12.2,3.6c0.8-1,1.2-2.2,1.1-3.5c-1.2,0.1-2.4,0.7-3.2,1.7c-0.4,0.5-0.7,1-0.9,1.6C9,3.9,8.9,4.5,9,5.1
	c0.6,0,1.2-0.1,1.8-0.4C11.3,4.5,11.8,4.1,12.2,3.6z"/>
</svg>
